<svg width="65" height="66" viewBox="0 0 65 66" fill="none" xmlns="http://www.w3.org/2000/svg">
<path d="M62.263 0.620027C59.9365 0.217127 57.5806 0.00973973 55.2199 1.41958e-05C47.1652 -0.00662478 39.2786 2.31551 32.5 6.68963C25.704 2.37294 17.8186 0.107801 9.78014 0.163175C7.41938 0.172901 5.06352 0.380288 2.73699 0.783188C1.97492 0.915279 1.2848 1.31659 0.790915 1.91485C0.297026 2.51311 0.0318225 3.26901 0.0430646 4.04641V43.2051C0.0361134 43.6846 0.134354 44.1597 0.330795 44.5967C0.527237 45.0337 0.817052 45.4217 1.17962 45.7333C1.54219 46.0449 1.9686 46.2723 2.42851 46.3993C2.88842 46.5263 3.37052 46.5499 3.84053 46.4683C8.49167 45.6587 13.2569 45.793 17.8556 46.8634C22.4544 47.9339 26.7935 49.9187 30.6175 52.7011L31.007 52.9295H31.364C31.724 53.0803 32.1101 53.158 32.5 53.158C32.8899 53.158 33.276 53.0803 33.636 52.9295H33.993L34.3825 52.7011C38.1798 49.8565 42.5065 47.8074 47.1061 46.6751C51.7057 45.5428 56.4846 45.3504 61.1595 46.1094C61.6295 46.191 62.1116 46.1674 62.5715 46.0403C63.0314 45.9133 63.4578 45.6859 63.8204 45.3743C64.1829 45.0628 64.4728 44.6747 64.6692 44.2377C64.8656 43.8008 64.9639 43.3256 64.9569 42.8462V3.68746C64.9232 2.94394 64.6376 2.23438 64.1476 1.67646C63.6576 1.11853 62.9927 0.745781 62.263 0.620027ZM29.2543 43.9883C23.2494 40.8122 16.5653 39.1545 9.78014 39.1587C8.70907 39.1587 7.63799 39.1587 6.53445 39.1587V6.52647C7.61545 6.46383 8.69914 6.46383 9.78014 6.52647C16.7045 6.51877 23.4777 8.56171 29.2543 12.4003V43.9883ZM58.4655 39.2892C57.362 39.2892 56.2909 39.2892 55.2199 39.2892C48.4347 39.285 41.7506 40.9427 35.7457 44.1188V12.4003C41.5223 8.56171 48.2955 6.51877 55.2199 6.52647C56.3009 6.46383 57.3845 6.46383 58.4655 6.52647V39.2892ZM62.263 52.8316C59.9365 52.4287 57.5806 52.2214 55.2199 52.2116C47.1652 52.205 39.2786 54.5271 32.5 58.9012C25.7214 54.5271 17.8348 52.205 9.78014 52.2116C7.41938 52.2214 5.06352 52.4287 2.73699 52.8316C2.31449 52.899 1.90941 53.0498 1.54505 53.2751C1.18069 53.5005 0.864229 53.796 0.613874 54.1448C0.363518 54.4935 0.184205 54.8886 0.0862445 55.3073C-0.0117159 55.7259 -0.0263904 56.16 0.0430646 56.5843C0.208006 57.4318 0.700286 58.1789 1.41207 58.6621C2.12385 59.1453 2.9971 59.3252 3.84053 59.1623C8.49167 58.3526 13.2569 58.487 17.8556 59.5574C22.4544 60.6278 26.7935 62.6127 30.6175 65.3951C31.1672 65.7885 31.8252 66 32.5 66C33.1748 66 33.8328 65.7885 34.3825 65.3951C38.2065 62.6127 42.5456 60.6278 47.1444 59.5574C51.7431 58.487 56.5083 58.3526 61.1595 59.1623C62.0029 59.3252 62.8761 59.1453 63.5879 58.6621C64.2997 58.1789 64.792 57.4318 64.9569 56.5843C65.0264 56.16 65.0117 55.7259 64.9138 55.3073C64.8158 54.8886 64.6365 54.4935 64.3861 54.1448C64.1358 53.796 63.8193 53.5005 63.4549 53.2751C63.0906 53.0498 62.6855 52.899 62.263 52.8316Z" fill="white"/>
</svg>
